<?xml version="1.0" standalone="no"?>
<!DOCTYPE svg PUBLIC "-//W3C//DTD SVG 20010904//EN"
 "http://www.w3.org/TR/2001/REC-SVG-20010904/DTD/svg10.dtd">
<svg version="1.0" xmlns="http://www.w3.org/2000/svg"
 width="360.000000pt" height="300.000000pt" viewBox="0 0 360.000000 300.000000"
 preserveAspectRatio="xMidYMid meet">
<metadata>
Created by potrace 1.16, written by Peter Selinger 2001-2019
</metadata>
<g transform="translate(0.000000,300.000000) scale(0.100000,-0.100000)"
fill="#000000" stroke="none">
<path d="M917 2712 c-14 -21 -150 -272 -302 -558 -153 -285 -297 -554 -321
-597 l-44 -78 42 -82 c89 -178 563 -1066 605 -1135 25 -40 55 -77 67 -82 32
-12 1465 6 1499 19 34 13 45 31 414 651 370 623 353 594 353 623 0 43 -680
1176 -753 1255 l-20 22 -757 0 -757 0 -26 -38z m1774 -464 c138 -233 282 -472
319 -533 120 -197 124 -205 100 -190 -5 3 -10 2 -10 -4 0 -13 -1334 -15 -1360
-1 -14 8 -87 120 -175 268 -5 10 -73 123 -151 252 -292 487 -364 609 -364 619
0 8 207 11 695 11 l694 0 252 -422z m-1530 44 c107 -178 203 -338 214 -356
196 -324 275 -457 275 -464 0 -6 -37 -71 -82 -147 -46 -75 -87 -144 -93 -153
-91 -154 -259 -434 -294 -492 -25 -41 -82 -135 -126 -210 -45 -74 -87 -136
-95 -138 -10 -1 -31 29 -60 85 -25 49 -65 124 -89 168 -45 82 -307 573 -413
773 l-60 112 53 98 c63 118 84 157 287 537 88 165 168 316 179 335 11 19 32
60 48 90 27 52 56 93 60 88 1 -2 90 -148 196 -326z"/>
</g>
</svg>
